<svg xmlns="http://www.w3.org/2000/svg" xml:space="preserve" width="543.54" height="225.42" stroke-linejoin="round" stroke-miterlimit="2" clip-rule="evenodd"><path d="M194.744 97.9c2.3-.1 6.1-.3 8.2-.3 11.4 0 15.3 5.9 15.3 12.4 0 7.2-4.4 10.7-13.3 10.7h-10.1V97.9zm-7.7 47c0 5.8-1.5 7.6-9.1 7.6h-2.1v1.8h33.9c14.9 0 20-10.3 20-17.6 0-7.2-5.1-12.9-13.8-15.5v-.2c6.2-1.1 10.6-6 10.6-11.3 0-4.4-1.9-7.6-5.6-10.3-3.3-2.4-10.5-3.6-18.6-3.6-1.8 0-8.8.1-13.9.3-2.7.1-9.1.5-11.7.6v1.8h3.2c6.5 0 7.1 2.8 7.1 8.1zm7.7-22.4h10c10.8 0 16.3 7.3 16.3 14.5s-3.5 14.8-15.7 14.8c-7.8 0-10.6-2.5-10.6-9.5zm128.8-24v-1.8h-22.5v1.8c5.2.3 6.9 1.7 6.9 6.7v39.5c0 6-1.1 7.6-6.4 7.9-7.1-.4-10.1-3.1-15.1-8.2l-7.3-7.3c-4.3-4.4-7.1-6.9-10.6-9.6 7.6-2.2 12.3-8.1 12.3-15 0-9.4-7.7-16.5-24.8-16.5-6 0-7.9.1-11.7.3s-9.4.6-11.7.6v1.8h2c5.4 0 6.9 1.7 6.9 7.4v39c0 6.2-1.9 7.7-7.4 7.7h-1.6v1.8h26.2v-1.8h-2.1c-5.2 0-7.4-1.4-7.4-6.9v-15.7c1.5.1 2.7.2 4.7.2 2.5 0 4-.1 6.3-.2 2.2 1.5 5.5 4.2 9.5 8.2l6.1 6.1c8 8 11.4 10.5 26.5 10h21v-1.8c-6.4 0-7.9-1.9-7.9-7.3v-39.3c.3-6.3 2.3-7.6 8.1-7.6zm-68.4 29.9c-2.1 0-3.5.1-5.7-.2V97.8c1.7-.2 2.9-.2 4.6-.2 14.3 0 18.2 6.7 18.2 15.3-.1 11.1-6.8 15.5-17.1 15.5zm74.7 11.8c1.9 8.2 8.4 13.1 15.7 13.1 6.2 0 12.8-3.6 12.8-10.9 0-13.3-29.7-17.4-29.7-33.6 0-7.7 7-13.4 16.5-13.4 7.8 0 9.4 2.3 12.6 2.3.7 0 1.1-.2 1.7-.9h1.5l1.6 11.8h-1.6c-2.6-6.7-8.5-10.9-14.9-10.9-6.1 0-10.4 3.5-10.4 8.7 0 13.2 29.7 16.7 29.7 33.7 0 9.1-8.1 15.8-18.9 15.8-5.1 0-11.6-2.5-12.9-2.5-.8 0-1.5.5-1.9 1h-1.6l-1.9-14.1h1.7zm71.1 5.6c0 5 1.7 6.8 7.3 6.8h3.4v1.8h-29.2v-1.8h3.4c5.6 0 7.3-1.8 7.3-6.8V100h-16.1c-3.7 0-5.4 2.1-6.8 10.3h-1.7l1.5-15h1.8c.1.6.5.9 1 1.1.6.2 1.2.3 1.9.3h44.5c1.3 0 2.7-.3 2.9-1.4h1.8l1.5 15h-1.7c-1.4-8.2-3.1-10.3-6.8-10.3h-16.1v45.8zm83.6-18.8c0 13.2-7.2 26.5-22.3 26.5-14.9 0-26.7-12.2-26.7-29.5 0-11.1 6.5-26.3 22.8-26.3 15.3-.1 26.2 12.1 26.2 29.3zm8.7-3.1c0-16.7-15-28.6-32.5-28.6-19.7 0-33.9 13.1-33.9 31.5 0 17.3 15.3 29 33.4 29 18 0 33-13.2 33-31.9zm43.1 30.4h-41.4v-1.8h3.1c4.3 0 5.8-1.4 5.8-6.1v-41c0-4.9-1.5-6.9-7.3-6.9h-1.3v-1.8h27.3v1.8h-3.4c-6 0-7.6.6-7.6 6.4v42.7c0 2.5 1 3.4 3.7 3.4h13.6c5.5 0 7.1-2.1 13-10.2h1.7z"/><path fill="#bf2f38" d="M103.644 70.2c-.1-5.4-1.9-16.4-14.8-22.7 13.1 4.2 19.4 15.2 20 23.5 13.7 2.7 26 9.2 45.8 2.4h.1s-26.1.2-37-7.6c5.6.2 12.1-1.1 14.2-4.2 2.3-3.4 2.5-6.9 8.1-7.1 3.1-.1 13.8.7 14.9-14.9-3.4 5.7-7.1 8.1-12.6 6.7-3.5-.9-10-3.6-14.7 1.9-3.8 4.6-7.9 6.9-14.5 6.2 2.6-3.5 41.7-54.3 41.7-54.3s-50 40.2-52.8 42.5c-.5-7.3 1.7-10 4.6-13.2 2.4-2.6 6.6-6.2 3.3-13.7-2.7-6.1-2.3-9.8 5-15.6-5.8.4-14.8 4.4-13.7 15.1.6 6.5-4 7-5.6 8-4.4 2.4-4.9 9.4-5.1 14.9-.5-1.8-6.8-29-9.1-37.8v73.3h.2c8.4-3.6 15.5-4.1 22-3.4z"/><path d="M228.144 30.4v1.5c-4.6.1-6.2 1.9-6.2 6.3v18.5c0 8.5-5.4 17.6-20.3 17.6-13.1 0-19.8-7.5-19.8-17.3V36.9c0-4.4-1.2-5.1-5.9-5.2v-1.3h17.6v1.3h-.6c-3.8 0-5.4 1-5.4 5v19.1c0 9.3 5.4 14.8 15.7 14.8 7.8 0 15.7-3.2 15.7-14.9v-16c0-6.6-1-7.8-6.7-8v-1.3zm9 37c0 3.8.9 4.7 4.6 4.7v1.3h-13.8v-1.3c3 0 4.6-1.6 4.6-4.3V53.4c0-2.5-.3-3-2.1-3.4l-2.3-.5v-1.1l7.9-2.9h1.1v5.4c4.6-2.9 8.4-5.4 11.8-5.4 4.7 0 7.3 3.4 7.3 10.3 0 9.1-.5 10.9-.5 13.6-.1 1.9 1 2.7 3.8 2.7h1.5v1.3h-14.8v-1.3c2-.1 3.2-.5 3.9-1.3 1.3-1.3 1.4-6.3 1.4-15.5 0-5.5-2.7-7.2-5.4-7.2-2.2 0-5.6 1.9-9.1 4.4v14.9zm37.1.7c0 2.4 1.3 3.9 4.9 3.9v1.3h-15.2V72c4.2 0 5.7-1.4 5.7-5V53.2c0-2.7-.3-3-2.1-3.4l-3.2-.6v-1.1l8.9-3.1h1zm-2.8-38.5c1.6 0 3 1.2 3 2.6s-1.4 2.6-3 2.6-3-1.2-3-2.6 1.3-2.6 3-2.6zm23.4 44.4-10-22.8c-1-2.4-1.9-3.2-3-3.4l-2.1-.3v-1.3h14v1.2c-4.2.1-5.5.7-3.8 3.9l7.3 17.1 7-15.9c1.2-2.8.6-4.8-4.4-5.2v-1.1h11.9v1.2c-2.6.5-4.1 2-5.4 5l-9.5 21.6zm22.7-19.9c1.6-6.4 5-7.4 7.3-7.4 3.3 0 6 3 6.8 7.4zm19.8 1.9v-1.7c-2.3-2.3-2.1-8.9-11.3-8.9-8.4 0-13.3 7.4-13.3 14.7 0 8 5.2 14.1 11.9 14.1 5 0 9.3-3.4 12.2-7.1l-.8-.8c-2.6 3.1-5.3 4.5-8.7 4.5-5.4 0-10.4-4.8-10.4-11.9 0-.9.1-1.9.3-2.9zm13.3 12.3c0 2.8 1 3.7 4.5 3.7h2.6v1.3h-16.3V72c3.5-.1 4.6-1.5 4.6-5.2V50.9l-4.6-1.6v-1.1l7.8-2.7h1.4v7.3h.1c3.4-5.6 4.3-6.9 6.5-6.9.8 0 1 .1 2.3.6.7.3 1.9.5 3.6 1l-1.6 4.1c-1-.1-2.3-.5-3.6-1.1-.8-.3-1.6-.7-2.4-.7-1.2 0-2 .8-2.7 1.8-.9 1.2-1.6 2.4-2.2 3.4zm17.3-1.9c.8 4.1 3.4 6.5 6.5 6.5 2.7 0 4.9-2.1 4.9-4.5 0-1.4-.3-2.3-2.2-4.2-4.9-4.9-10.3-5.4-10.3-11.1 0-4.5 3.6-7.7 8.8-7.7 1.9 0 3.8.4 5.5 1.1l.1 6.2h-1.2c-.5-3.5-2.8-5.7-5.5-5.7-2.3 0-4.2 1.6-4.2 3.8 0 6 12.8 7.1 12.8 15.5 0 4.5-3.7 7.8-8.5 7.8-1.3 0-2.3-.2-3-.5-.8-.2-1.3-.4-1.9-.4-.4 0-.8.3-1.2.8h-1l-.8-7.7h1.2zm29.8 1.7c0 2.4 1.3 3.9 4.9 3.9v1.3h-15.2V72c4.2 0 5.7-1.4 5.7-5V53.2c0-2.7-.3-3-2.1-3.4l-3.2-.6v-1.1l8.9-3.1h1zm-2.9-38.5c1.7 0 3 1.2 3 2.6s-1.4 2.6-3 2.6-3-1.2-3-2.6c.1-1.4 1.4-2.6 3-2.6zm27.4 16.6-1.1 3h-8.7v16c0 4.3 3.1 5.8 4.5 5.8 1.5 0 2.9-1.2 4.2-3.4l1.1 1c-1.6 3.6-4.3 5.6-7.5 5.6-4.1 0-6.9-3.4-6.9-8v-17h-3.2v-1.1c2.7-1.3 5-4.5 6.6-8.7h1.2v6.8zm27.1 7.6c2.1-5.2.8-6.2-3.3-6.4v-1.2h11.4v1.2c-2.8.3-4.4 2.3-5.7 5.5l-11.7 29.1c-2.1 5.1-3.6 7.3-6 7.3-1.7 0-2.8-1-2.8-2.4 0-2.8 4-2.1 5.7-3.8.8-.8 1.8-2.5 2.3-3.9l2.1-5.2-10.6-22.6c-1.3-2.8-2.5-4-5.4-4.1v-1.1h13.8v1.2c-4.2.1-4.7 1.3-3.3 4.2l7.8 16.8zm28.7 3.8c0-5.9 4.2-10.6 8.7-10.6 5.8 0 10.6 6.7 10.6 14.5 0 6.9-4.6 11-8.7 11-5.9 0-10.6-6.6-10.6-14.9zm-5.2 2.4c0 8 6.5 14.2 15 14.2 8.2 0 14.6-6.2 14.6-14.4s-6.4-14.4-14.8-14.4c-7.1 0-14.8 5.1-14.8 14.6zm49.6-10.8h-7.4V68c0 3.2 1.2 4.1 5.1 4.1h2.6v1.3h-17v-1.3c4 0 4.7-.9 4.7-4.7V49.2h-5.1V48c1.9-.4 3.6-1 5.1-1.9 0-5.7 1.2-10 5.3-14.1 3.4-3.4 6.6-4.9 9.8-4.9 3.8 0 7.1 2.2 7.1 3.2 0 .5-1.3 3.3-1.9 3.3-1 0-3.5-3.4-8-3.4-4.9 0-7.6 3.9-7.6 10.6V46h6.9z"/><path fill="#bf2f38" d="M73.844 0v73.3c-29.5-11.6-41.8 10.9-73.2 0V0h14.9v7.9h8.6V0h8.4v7.9h8.5V0h8.5v7.9h9.2V0zm-54.3 21.4c3.4.2 7.5-1.9 7.7-2.1 0 0-1.4 3.6 1.8 3.4 3.5-.2 7.4-2 8-2.3v-4.6c-.3.2-3.7 2.6-7.5 3.5-1.4.3-.9-.9-.8-1.6s.2-1.3-2.3-.2c-10.2 4.2-10.8 1.3-10.8 1-.3.3-.2 2.6 3.9 2.9zm29.9.2s-13.3 1.9-17.1 2.3c-2.6 1.6-5.7 5.9-5.7 5.9s-3.1.5-9.3 1.6c-4.3 2.8-6.9 9.4-1.6 14.8-1.7-.4-1.7-.4-4.2-.8-5.3 3.4-2.8 9.7 8.2 7.5-3.1-.1-4.7-1.6-4.6-3.6-.1-2.2 4.1-4.9 9.3-3.5-4.9-9.2.5-12.9.5-12.9s-2.9 7.6 3.4 13.9c.6-.9 2.4-3.5 7.7-3.6s8.6 2.5 8.6 5.5c.1 2.6-3.3 5.4-7.6 5.4l-.1-6.3s-1.4.5-1.8 1.1v5.3c-1.7 0-5.2-.7-7-3.6-1.4-.1-9.3-1.3-9.3-1.3l.4 2.1s2.8.5 3.3 3.2c.6 3.3 2.6 6.4 4.2 7.6 3.3-.4 8.7-4.5 18.8-4.4-9.2 1.3-18.6 11.1-32 7.4 21.4 7.3 23.6-8.9 50.4-3.8-4.2-2.5-10.4-3.3-10.4-3.3s3.3-3.6 3.5-9.1c.4 0 1-.1 2.1-.2.4-1.8.6-3.6.6-3.6h-10.7c-12.1-12.3.4-23.6.4-23.6zm5.1 18.1c-.6-3-.3-9.1 2.7-15-11 8.3-11.1 15-11.1 15s2.1-1.6 8.4 0zm100.1 41.2v73.4c-40.6 9.9-41.8-11.7-73.2 0V80.9c28.9-12.1 40.1 10.8 73.2 0zm-16.3 8.3c-6.5 2.3-5.6 9.3-3.8 12 2.3 3.5 4.2 3.6 5.7 7.8 1.1 3.2-.9 4.9-2.9 5.7 3.5 2.1 7-.1 8.3-2.2 2.3-3.1-.3-7.2 2.2-9.3.7-.6 1.8-1 3.3-1-1.5-2.2-5.1-1.9-6.5.1-1-2.3-3.8-4.4-2.8-8 .7-2.4 4.4-3.3 5.8-1.3.8 1.1.9 3.2-1.4 4.2 1.4-.1 4.1-2.5 2.3-5.9-1.3-2.3-3.5-2.5-5.2-2.5-3.2 0-8.6 3.7-5.2 11.6-2-1.8-5.2-7.9.2-11.2zm-41.3 14.2s-1 1.3.1 1.6c0 .4.2 1.1.3 1.5.2.5.5.3.9-.1s1-1.2 1.4-1.7c.4-.4 1.8-.3 1.2.6-.4.6-.7.7-1.1.8s-.5-.2-.9.3c-.4.6-.9 1-.1 1 .4 0 1.2.4 1.7.3s.5-.4.6-.8 0-.7.5-1c.6-.4 1.6-1.2 1.9-1.5s.7-.3 1.2-.3 2.5.2 3.7-1.6c.9-1.3 1-3.1.6-4.6.6.6 1.4 2.4 1 4.1-.7 3.1-2.2 3.2-3.8 3.6-.6.9-2.3 3.2-3.1 7.4-.4.2-3.5 3.2-.9 8.1-.7.2-2.6 1.1-3.8 1.3-.8.2-1.4.2-1.7.6-.4.4-1.2 1.8-.7 2.5.3.5 2.2 4.8 2.4 6.1s.6 1.6 1.1 2.1.9.5 1.6 1c.8.6 1.4 1.6 2.1 2.1.7.6 1.6.8 2.2.8-.1-2.2-.6-4.3-1.3-5s-1.6.3-1.8.4-.5-.2-.6-.7c-.1-.6.4-1.1-.1-1.9-1-1.5-1.9-3.2-2-3.4-.7-1.4.5-1.7.8-1.6.7.2 4.8.7 5.5.8.6.1 1 .2 1.3-.2.9-1 1.4-1.7 1.9-2.7.9.7.3 2 0 3.6.3.2 6.3 3.3 14.5 1.1 3.4-.9 3.1-.2 3.4.4 2 3.9 3.4 5.4 5.8 7.3.7.6 1.2 1.5 1.5 2s.4 1.5.1 2.1c-.3.8-2.2 4.1-2.5 4.5-.6.9-1.4 1.6-2.1 2-2.1 1.1-2.6 2.1-2.8 2.9h5.4s.1-.3.1-.9c-.1-.9.8-1.1 1-1.2.3-.1.7.2 1.2-.8.8-1.9 3.9-7.2 4.2-7.7s1.2-1.8.3-2.3c-1.8-1.1-2.9-2.8-3.2-4.8-.1-.8-.1-2.1 1.7-4.2 3.8-4.7 1-14.3-7.4-14.1-4.7.1-7.4-.3-10.5-.9-1.1-.2-1.3-.8-1.1-1.5s.5-2.1.5-2.7c-.8-.7-2.1-1.2-2.7-1.4s-1-.7-.3-.8 3.1.2 3.1.2.1-1.3-.3-3.3c-1.1-.5-2.4-.9-3.8-1-.4 0-.7-.5.2-.6 1.2-.2 2.4 0 3.3 0 .1-.1-.4-2.6-1.3-3.6-.6-.2-.9-.3-3.1-.5-.7-.1-.8-.3-.3-.5.6-.2 1.5-.4 2.7-.3-.5-.6-3.5-6.3-9.9-4.6.7.9 1.1 1.3 1.3 1.9.2.5-.4.7-.9.2-2-2.1-3.1-2.1-4.4-2.3.8.8 1.2 1.6 1.5 2.5-1.5 1-3.5 3.5-3.8 4-.6.9.2 1.4.2 1.4zm3 14c-3-1.2-3.6-2-4.2-2.2-.5-.2-2.5.7-2.9 1.5-.9 2.4-3 6.2-3.3 6.8-.2.3-.3.6-.3 1s.2 1.9.1 2.3c0 .4 0 .8.2 1.2s.3 1.9 1.1 3.4c1.7-1.7 2-4.3 1.9-3.8 0 0 .5-.9-.8-1.4-.4-.1-.3-1.1.1-1.3.5-.2.8-.3 1-1.2s1.2-4.2 1.5-4.9c0-.1.1-.3.3-.3.3-.1.6-.2.8-.3.1 0 .4.1.5.2.5.5 2.9 2.5 2.9 2.5s1.1-.1 1.8-.4c-.5-.6-.7-2.3-.7-3.1zm27.2 19.4c-1.2 1-4.8 2.8-5.7 3.2s-1.2.7-1.9 2c-.8 1.6-1.6 4.5-1.4 4.7 2.2-.4 3.8-2.2 3.8-2.2s0-.5-.5-1.2c-.4-.6.4-1.3.9-.9.4.3.9.4 1.2.1s7.3-4.7 7.6-5.2c-1.4-1.4-2.5-2.8-2.5-2.8s-.4 1.4-1.5 2.3zm-25.3-37s-.3-.2.3-.7c.1-.1.2.1.6.1.5 0 .8-.2 1.2-.7.7-.8-.7-1.1-1.2-.7s-.8.8-1.3 1.2c.1 0-.6.6.4.8zm-28.1-18.9v73.4c-31.4-11.7-32.6 9.9-73.2 0V80.9c33 10.8 44.3-12.1 73.2 0zm-49.9 48.2c-.3 3.1-2 3.6-2 3.6-3.1-1.4-4.8 2.5-2.2 3.7 3.3 1.5 5.3-2.8 5.5-3.6.6-2.2.6-3.8.4-7.5-.2-3.1.6-3.6 1.1-3.7s1.6-.1 2.6 3.1c1.1 3.2 3.4 3.7 3.4 3.7s-3.3-5.4 1.3-10.4c2.2-2.3 6.5-3.6 5.7-6.9 0 0-.7 1.2-2 1.5s-3.9.7-3.9.7 6.1-2.9 7.2-6.2c0 0 1.9 3.2-.6 7.9 0 0 2.4-.9 5.1.3 6.7 3 6 12.5-2.5 14.8-12 3.2-7.7 12.5-.8 13.1-.7-.5-.9-3.3.3-4.9.6-.5 1.7-1.6 2.4.7 1.2 4 4.7 4.4 6.4 3.9-.4-.4-1.2-1.6-1.1-2.3.2-1.4 2 .1 2.6.2 4.7 1.3 7.3.2 7.5-.5-1.1-.2-.9-.1-1.5-.3s-1.8-1 .4-1.5c4.2-1 6.5-5.3 3.7-8.6-2.6-3.2-6-2.7-7-2.3 4.5 1 4.8 4.6 2.5 6.5-2 1.5-7 2.1-8.7-1.2-1.1.8-1.5 2-1.3 3.6-.5-.2-2.4-2.9.5-5.1 13.1-8.4 11-22.6-.1-28.5l-.1-.1c-10.1-5.8-18.9-.5-18.9-.5 6.2-6.2 17-2.5 18.5-1.8 0 0-1.2-1.1-1.9-2.1-.9-1.3-.8-2.5-.8-2.5-4.3 2.4-5.4-1.3-5.4-1.3s-3.7 3.3-6.1.6c-2.1-2.4 1.3-5.6 1.3-5.6-21.6 7.1-17.5 19.3-17.5 19.3s-3.1 2.9-3.8 9.8c-.8 7.9 3.1 13.5 8 11.9 1-.3 1.5-.8 1.8-1.5zm-1.1-4.6c1.1-.1 1.2-1.4 1-2.1-.2-.8-1.6-.9-1.9.1s0 2 0 2c.3 1 1.4 1.3 1.5 1.2-.7-.6-.5-.9-.6-1.2zm4.4-1.7s-1.3.8.3 4.4c1.6 3.5 3.6 6.8.1 10.7 2 0 6.3-2.6 1.7-10.3-1-1.9-2.2-3.1-2.1-4.8z"/><path d="M17.92 208.02c0 1.24-.12 2.48-.32 3.64s-.64 2.24-1.28 3.16c-.68.92-1.6 1.68-2.84 2.24s-2.92.84-4.96.84c-1.52 0-2.8-.24-3.88-.72-1.08-.44-1.96-1.08-2.64-1.92-.68-.8-1.2-1.76-1.52-2.88S0 210.06 0 208.74v-1.52h5v1.48c0 1.64.28 2.88.84 3.76.52.92 1.56 1.36 3.08 1.36.8 0 1.48-.12 2-.36s.92-.6 1.24-1.08c.28-.44.48-1.04.6-1.72s.16-1.48.16-2.36v-19.64h5zm19.64-2.96c-.04-.72-.2-1.4-.44-2.08-.28-.68-.6-1.24-1.04-1.76-.44-.48-1-.88-1.6-1.2-.64-.28-1.36-.44-2.12-.44-.8 0-1.52.12-2.16.4-.68.28-1.24.68-1.68 1.16-.48.52-.84 1.08-1.12 1.76s-.44 1.4-.48 2.16zm-10.64 3c0 .8.12 1.56.36 2.32.2.76.56 1.4 1 1.96s1.04 1 1.72 1.32c.68.36 1.52.52 2.48.52 1.32 0 2.4-.28 3.24-.88.8-.56 1.4-1.4 1.8-2.56h4.32c-.24 1.12-.64 2.12-1.24 3s-1.28 1.6-2.12 2.2-1.76 1.08-2.76 1.4c-1.04.28-2.12.44-3.24.44-1.64 0-3.08-.28-4.32-.8s-2.32-1.28-3.16-2.24c-.88-.96-1.52-2.12-1.96-3.44s-.68-2.8-.68-4.4c0-1.48.24-2.84.72-4.2.44-1.32 1.12-2.48 2-3.48.84-.96 1.88-1.76 3.12-2.36s2.6-.88 4.16-.88c1.64 0 3.08.32 4.4 1 1.28.68 2.36 1.6 3.2 2.72s1.48 2.4 1.88 3.84c.36 1.48.48 2.96.28 4.52zm36 4.56c0 .56.08.96.24 1.2.12.24.4.36.84.36h.48c.2 0 .4-.04.64-.08v3.16c-.16.04-.36.12-.6.2-.28.04-.52.12-.8.16s-.52.08-.8.12-.48.04-.68.04c-.92 0-1.72-.2-2.32-.56s-1-1.04-1.2-1.96c-.92.88-2.04 1.52-3.32 1.92-1.32.4-2.6.6-3.84.6-.92 0-1.84-.12-2.68-.36-.84-.28-1.6-.64-2.24-1.16-.68-.48-1.2-1.12-1.56-1.88-.4-.76-.6-1.64-.6-2.64 0-1.28.24-2.32.72-3.12.44-.8 1.08-1.44 1.84-1.88s1.6-.8 2.56-1c.92-.2 1.88-.32 2.84-.44.84-.16 1.6-.28 2.36-.36.76-.04 1.4-.16 2-.32.56-.16 1-.4 1.36-.76.32-.32.48-.8.48-1.48 0-.6-.12-1.08-.4-1.44s-.64-.68-1.04-.88c-.44-.2-.88-.32-1.4-.4-.52-.04-1-.08-1.44-.08-1.28 0-2.32.28-3.16.8s-1.28 1.36-1.4 2.48h-4.56c.08-1.32.4-2.44.96-3.32s1.28-1.6 2.16-2.12c.84-.52 1.84-.92 2.92-1.12s2.2-.32 3.36-.32c1 0 2 .12 3 .32s1.88.56 2.68 1.04c.76.48 1.4 1.08 1.88 1.84s.72 1.72.72 2.8zm-4.56-5.76c-.68.44-1.56.72-2.56.8-1 .12-2.04.24-3.04.44-.48.08-.96.2-1.4.32-.44.16-.84.36-1.2.6-.36.28-.6.6-.8 1-.2.44-.32.92-.32 1.52 0 .52.16.92.44 1.28s.64.64 1.08.8c.4.2.84.36 1.36.44.48.08.92.12 1.32.12.52 0 1.04-.08 1.64-.2s1.16-.36 1.68-.68c.48-.32.92-.72 1.28-1.24.36-.48.52-1.08.52-1.8zm9.48-10.32h4.32v3.04l.08.08c.68-1.16 1.6-2.04 2.72-2.72 1.12-.64 2.36-.96 3.72-.96 2.28 0 4.04.6 5.36 1.76s1.96 2.92 1.96 5.28v14.2h-4.56v-13c-.04-1.64-.4-2.8-1.04-3.56-.64-.72-1.64-1.08-3-1.08-.76 0-1.48.12-2.08.4s-1.12.68-1.56 1.16c-.44.52-.76 1.08-1 1.76s-.36 1.36-.36 2.12v12.2h-4.56zm59.64 20.68h-3.2l-.76-3.36c-1.32 1.52-2.68 2.56-4 3.16s-2.88.88-4.6.88c-2.12 0-4.04-.4-5.72-1.2-1.72-.76-3.16-1.84-4.32-3.2s-2.08-2.96-2.68-4.76c-.64-1.8-.96-3.76-.96-5.8s.32-3.96.96-5.76c.6-1.8 1.52-3.4 2.68-4.76s2.6-2.44 4.32-3.24c1.68-.8 3.6-1.2 5.72-1.2 1.56 0 3 .2 4.44.6 1.4.44 2.64 1.04 3.72 1.84 1.08.84 2 1.84 2.72 3.08s1.16 2.64 1.36 4.24h-4.88c-.12-.92-.4-1.76-.84-2.48-.44-.68-1-1.28-1.68-1.76s-1.4-.84-2.24-1.08-1.68-.36-2.6-.36c-1.52 0-2.84.32-3.92.92-1.12.6-2.04 1.44-2.72 2.44-.68 1.04-1.2 2.2-1.52 3.52-.36 1.32-.52 2.64-.52 4s.16 2.68.52 4c.32 1.32.84 2.48 1.52 3.48.68 1.04 1.6 1.88 2.72 2.48 1.08.6 2.4.92 3.92.92 1.28.04 2.4-.16 3.4-.52s1.84-.88 2.52-1.56 1.16-1.48 1.52-2.48.52-2.08.56-3.28h-7.6v-3.8h12.16zm14.28.56c-1.64 0-3.12-.28-4.4-.84-1.32-.52-2.4-1.28-3.28-2.24-.92-.96-1.6-2.12-2.04-3.44-.48-1.32-.72-2.8-.72-4.4 0-1.56.24-3.04.72-4.36.44-1.32 1.12-2.48 2.04-3.44.88-.96 1.96-1.72 3.28-2.28 1.28-.52 2.76-.8 4.4-.8s3.12.28 4.44.8c1.28.56 2.36 1.32 3.28 2.28.88.96 1.56 2.12 2.04 3.44.44 1.32.68 2.8.68 4.36 0 1.6-.24 3.08-.68 4.4-.48 1.32-1.16 2.48-2.04 3.44-.92.96-2 1.72-3.28 2.24-1.32.56-2.8.84-4.44.84zm0-3.6c1 0 1.88-.2 2.64-.64s1.36-1 1.84-1.68.84-1.48 1.08-2.36c.2-.84.32-1.72.32-2.64 0-.88-.12-1.76-.32-2.64-.24-.88-.6-1.68-1.08-2.36s-1.08-1.2-1.84-1.64-1.64-.64-2.64-.64-1.88.2-2.64.64-1.36.96-1.84 1.64-.84 1.48-1.04 2.36c-.24.88-.36 1.76-.36 2.64 0 .92.12 1.8.36 2.64.2.88.56 1.68 1.04 2.36s1.08 1.24 1.84 1.68 1.64.64 2.64.64zm14.36-25.52h4.56v28.56h-4.56zm29 28.56h-4.32v-2.8h-.08c-.6 1.2-1.52 2.04-2.68 2.56-1.16.56-2.4.8-3.72.8-1.64 0-3.04-.28-4.24-.88-1.24-.56-2.24-1.32-3.04-2.32s-1.4-2.16-1.8-3.52c-.4-1.32-.6-2.76-.6-4.32 0-1.88.24-3.48.76-4.84s1.2-2.48 2.04-3.36 1.8-1.52 2.88-1.96c1.08-.4 2.16-.6 3.28-.6.64 0 1.28.04 1.96.16s1.32.32 1.92.6 1.2.6 1.72 1c.48.44.92.92 1.28 1.48h.08v-10.56h4.56zM169.2 207.1c0 .88.12 1.76.36 2.6.2.84.56 1.6 1.04 2.28.44.68 1.04 1.2 1.76 1.6s1.56.6 2.56.6 1.88-.2 2.64-.64c.72-.44 1.32-1 1.8-1.68.44-.68.8-1.48 1.04-2.36.2-.84.32-1.72.32-2.64 0-2.28-.52-4.08-1.52-5.36-1.04-1.28-2.44-1.92-4.2-1.92-1.08 0-1.96.2-2.68.64-.76.48-1.36 1.04-1.8 1.72-.48.72-.8 1.52-1 2.4-.2.92-.32 1.84-.32 2.76zm21-18.44h4.56v4.32h-4.56zm0 7.88h4.56v20.68h-4.56zm9.52 0h4.32v3.04l.08.08c.68-1.16 1.6-2.04 2.72-2.72 1.12-.64 2.36-.96 3.72-.96 2.28 0 4.04.6 5.36 1.76s1.96 2.92 1.96 5.28v14.2h-4.56v-13c-.04-1.64-.4-2.8-1.04-3.56-.64-.72-1.64-1.08-3-1.08-.76 0-1.48.12-2.08.4s-1.12.68-1.56 1.16c-.44.52-.76 1.08-1 1.76s-.36 1.36-.36 2.12v12.2h-4.56zm42.08 19.6c0 3.12-.88 5.44-2.6 7-1.76 1.52-4.28 2.28-7.56 2.28-1.04 0-2.08-.12-3.12-.32-1.08-.2-2.04-.56-2.88-1.08-.88-.52-1.6-1.16-2.2-2s-.92-1.84-1.04-3.04h4.56c.12.64.36 1.16.68 1.56s.72.72 1.16.96c.44.2.92.36 1.44.44.52.04 1.08.08 1.68.08 1.84 0 3.2-.44 4.04-1.36s1.28-2.2 1.28-3.92v-3.16h-.08c-.64 1.16-1.52 2.04-2.6 2.68-1.12.64-2.32.96-3.6.96-1.64 0-3.04-.28-4.2-.88-1.16-.56-2.12-1.36-2.88-2.36-.8-1-1.32-2.12-1.68-3.44s-.52-2.72-.52-4.2c0-1.4.2-2.72.64-3.96s1.04-2.36 1.84-3.32c.8-.92 1.76-1.68 2.96-2.24 1.16-.56 2.44-.84 3.92-.84 1.32 0 2.52.28 3.6.8 1.08.56 1.92 1.44 2.52 2.6h.08v-2.84h4.56zm-10.12-2.52c1 0 1.88-.2 2.6-.64.68-.4 1.28-.92 1.72-1.64.44-.68.76-1.44.96-2.32.2-.84.28-1.72.28-2.6s-.12-1.72-.32-2.56-.52-1.56-.96-2.2-1.04-1.16-1.72-1.52c-.72-.36-1.56-.56-2.56-.56s-1.88.2-2.56.64-1.24.96-1.68 1.64-.72 1.48-.92 2.32c-.2.88-.28 1.76-.28 2.6s.12 1.68.32 2.48c.2.84.56 1.56 1 2.2s1 1.16 1.68 1.56 1.48.6 2.44.6zm26.48-24.96h5v28.56h-5zm10.48 7.88h4.32v3.04l.08.08c.68-1.16 1.6-2.04 2.72-2.72 1.12-.64 2.36-.96 3.72-.96 2.28 0 4.04.6 5.36 1.76s1.96 2.92 1.96 5.28v14.2h-4.56v-13c-.04-1.64-.4-2.8-1.04-3.56-.64-.72-1.64-1.08-3-1.08-.76 0-1.48.12-2.08.4s-1.12.68-1.56 1.16c-.44.52-.76 1.08-1 1.76s-.36 1.36-.36 2.12v12.2h-4.56zm26.4 14.04c.12 1.32.64 2.28 1.52 2.8s1.92.8 3.16.8c.44 0 .92-.04 1.48-.12.52-.04 1.04-.16 1.52-.36s.88-.44 1.2-.84c.28-.32.44-.8.4-1.4s-.24-1.08-.64-1.44-.92-.68-1.52-.92c-.64-.2-1.36-.4-2.16-.56s-1.6-.32-2.44-.52-1.68-.4-2.44-.68c-.8-.28-1.52-.64-2.12-1.08-.64-.44-1.16-1.04-1.52-1.76-.36-.68-.56-1.56-.56-2.6 0-1.12.28-2.08.84-2.84.52-.72 1.24-1.36 2.08-1.84.8-.44 1.76-.76 2.8-.96 1-.2 2-.28 2.92-.28 1.08 0 2.08.12 3.08.32.96.24 1.84.6 2.64 1.12.76.52 1.44 1.16 1.96 1.96.52.84.84 1.8.96 2.96h-4.76c-.2-1.08-.72-1.84-1.48-2.2-.8-.36-1.72-.56-2.72-.56-.32 0-.68.04-1.12.08s-.88.16-1.24.28c-.4.16-.72.36-1 .64s-.4.68-.4 1.12c0 .56.2 1 .6 1.36.36.36.88.64 1.52.84.6.24 1.32.44 2.12.6s1.64.32 2.48.52 1.64.4 2.44.68 1.52.64 2.16 1.08c.6.44 1.12 1.04 1.52 1.72.36.68.56 1.56.56 2.56 0 1.24-.28 2.28-.84 3.12s-1.28 1.56-2.16 2.08c-.92.52-1.92.92-3 1.16s-2.16.36-3.24.36c-1.32 0-2.52-.16-3.6-.44-1.12-.28-2.08-.76-2.88-1.36-.84-.6-1.48-1.32-1.92-2.24-.48-.88-.72-1.92-.76-3.16zm15.24-14.04h3.44v-6.2h4.56v6.2h4.12v3.4h-4.12v11.04c0 .48.04.88.08 1.24s.12.64.28.88c.12.24.36.44.64.52.28.12.68.2 1.2.2.32 0 .64 0 .96-.04.32 0 .64-.04.96-.12v3.52c-.52.04-1 .12-1.48.16s-.96.08-1.48.08c-1.2 0-2.16-.12-2.88-.36-.76-.2-1.32-.56-1.72-1-.44-.44-.72-.96-.84-1.64-.16-.68-.24-1.44-.28-2.28v-12.2h-3.44zm15.52-7.88h4.56v4.32h-4.56zm0 7.88h4.56v20.68h-4.56zm7.44 0h3.44v-6.2h4.56v6.2h4.12v3.4h-4.12v11.04c0 .48.04.88.08 1.24s.12.64.28.88c.12.24.36.44.64.52.28.12.68.2 1.2.2.32 0 .64 0 .96-.04.32 0 .64-.04.96-.12v3.52c-.52.04-1 .12-1.48.16s-.96.08-1.48.08c-1.2 0-2.16-.12-2.88-.36-.76-.2-1.32-.56-1.72-1-.44-.44-.72-.96-.84-1.64-.16-.68-.24-1.44-.28-2.28v-12.2h-3.44zm33.56 20.68h-4.48v-2.88h-.08c-.56 1.04-1.4 1.88-2.48 2.48-1.12.64-2.24.96-3.4.96-2.72 0-4.68-.68-5.88-2.04-1.24-1.32-1.84-3.36-1.84-6.08v-13.12h4.56v12.68c0 1.8.36 3.08 1.04 3.84s1.68 1.12 2.92 1.12c.96 0 1.76-.16 2.4-.44s1.16-.68 1.56-1.2c.4-.48.68-1.08.88-1.76.16-.68.24-1.44.24-2.24v-12h4.56zm2.72-20.68h3.44v-6.2h4.56v6.2h4.12v3.4h-4.12v11.04c0 .48.04.88.08 1.24s.12.64.28.88c.12.24.36.44.64.52.28.12.68.2 1.2.2.32 0 .64 0 .96-.04.32 0 .64-.04.96-.12v3.52c-.52.04-1 .12-1.48.16s-.96.08-1.48.08c-1.2 0-2.16-.12-2.88-.36-.76-.2-1.32-.56-1.72-1-.44-.44-.72-.96-.84-1.64-.16-.68-.24-1.44-.28-2.28v-12.2h-3.44zm29.6 8.52c-.04-.72-.2-1.4-.44-2.08-.28-.68-.6-1.24-1.04-1.76-.44-.48-1-.88-1.6-1.2-.64-.28-1.36-.44-2.12-.44-.8 0-1.52.12-2.16.4-.68.28-1.24.68-1.68 1.16-.48.52-.84 1.08-1.12 1.76s-.44 1.4-.48 2.16zm-10.64 3c0 .8.12 1.56.36 2.32.2.76.56 1.4 1 1.96s1.04 1 1.72 1.32c.68.36 1.52.52 2.48.52 1.32 0 2.4-.28 3.24-.88.8-.56 1.4-1.4 1.8-2.56h4.32c-.24 1.12-.64 2.12-1.24 3s-1.28 1.6-2.12 2.2-1.76 1.08-2.76 1.4c-1.04.28-2.12.44-3.24.44-1.64 0-3.08-.28-4.32-.8s-2.32-1.28-3.16-2.24c-.88-.96-1.52-2.12-1.96-3.44s-.68-2.8-.68-4.4c0-1.48.24-2.84.72-4.2.44-1.32 1.12-2.48 2-3.48.84-.96 1.88-1.76 3.12-2.36s2.6-.88 4.16-.88c1.64 0 3.08.32 4.4 1 1.28.68 2.36 1.6 3.2 2.72s1.48 2.4 1.88 3.84c.36 1.48.48 2.96.28 4.52z"/></svg>